<svg xmlns="http://www.w3.org/2000/svg" width="1113.75" height="1200" viewBox="0 0 891.000000 960.000000"><g transform="matrix(.1 0 0-.1 0 960)"><path d="m2895 9151c-117-32-227-109-308-219-96-129-100-142-128-342-6-47-22-114-35-149-34-91-32-120 15-179 41-51 64-63 181-96 71-20 73-22 98-79l21-47-24-36c-43-64-44-166-2-249 57-113 69-171 78-375 4-114 14-220 23-255 8-33 15-62 16-66 0-3-32-31-71-63l-70-58-87 31-87 32-27-30c-33-37-44-75-32-109 7-18 24-31 68-47 32-12 63-30 68-39 5-9 12-51 15-91l6-74 60-52c54-48 66-53 139-66 63-11 88-21 126-50 46-35 48-35 117-30 38 3 77 8 86 12 9 3 26 28 39 55 29 62 52 84 79 75 16-5 18-10 11-28-80-201-391-922-397-922-4 0-41 6-81 14-68 12-73 15-68 35 14 51 18 237 7 317-20 137-61 208-146 251-32 17-51 20-106 15-64-5-67-5-88 24-46 62-150 89-234 58-34-12-36-11-61 19-35 41-103 66-160 60-42-5-47-3-67 27-41 59-84 80-165 80-65 0-74 2-83 21-15 33-71 71-124 85-92 25-201-26-321-152-89-93-144-172-216-310l-55-106-174 53-175 52-35-18c-103-53-156-195-108-287 23-44 46-54 225-98l154-38-9-61c-4-33-8-133-8-221 0-181 14-246 70-319 52-70 158-105 229-77 15 6 28-1 56-29 41-41 112-66 161-56 28 5 36 1 78-43 64-68 132-86 215-56 40 14 40 14 82-25 52-48 112-66 172-52 43 10 44 9 87-34 107-106 247-75 411 93 82 85 180 230 238 355l45 95 263-58c145-33 264-59 266-59 1 0 2-31 2-69 0-133 43-471 85-671 22-105 37-309 29-409-6-76-11-89-48-144-47-70-94-104-277-202-69-36-150-87-180-111-79-65-130-80-294-89-86-4-143-12-147-19-4-6-8-68-8-139 0-123 1-128 25-149 14-12 25-25 25-30 0-8-631-1078-703-1192l-31-49 79-75c44-40 98-89 120-107l41-34 614 174c338 96 627 179 643 184 15 6 27 8 27 5 0-3-108-306-240-675-132-368-240-675-240-682 0-7 52-64 115-127l114-114 1153 352c634 194 1189 363 1233 377 78 24 81 26 113 79 17 30 32 63 32 75 0 11-29 188-65 394-36 206-65 382-65 391 0 9 6 16 13 16 7 0 448 123 980 274l967 274 458-253 459-254 162 56 161 56-2 174-3 173-295 145c-162 80-299 146-303 148-4 1-3 250 3 552l11 550 32 64c72 146 37 353-73 431-15 11-65 30-112 44-57 16-106 39-149 69-167 116-251 126-508 61-83-21-119-25-170-21-37 4-507 109-1046 236-539 126-997 232-1017 236-43 8-45 11-22 36 13 14 20 16 40 7 19-9 28-8 44 7 32 29 107 163 177 318 35 78 109 232 164 342 122 245 143 317 142 470-1 136-18 212-83 360-59 137-87 182-154 253-58 62-92 82-136 82-44 0-47 23-10 70 45 56 65 116 95 276 14 75 32 161 41 189 20 63 14 105-24 159-24 34-43 46-153 91-70 28-155 70-190 93-91 60-217 120-280 133-34 8-94 9-166 5l-112-6-48 56c-80 93-197 137-353 133-57-2-83 2-110 17-28 15-53 18-124 16-97-2-113 5-142 59-12 24-11 30 15 65 50 67 66 134 66 270 0 120 0 121-38 195-74 146-183 253-306 300-61 24-248 36-306 20m206-51c93-17 189-72 261-149 106-112 146-225 136-385-6-95-32-163-77-205l-30-28 31-44c72-100 72-101 166-93 78 6 87 5 143-21 59-29 74-45 41-45-30 0-159-67-176-91-9-13-16-39-16-58v-35l35 41c56 66 123 102 217 119 96 17 117 30 62 39-86 14-79 25 11 20 125-6 175-25 238-92 92-96 99-98 277-98 154 0 155 0 215-31 33-18 78-46 100-64 22-18 49-37 60-43 33-17 227-98 262-108 66-20 87-82 62-181-5-24-23-109-38-189-31-159-66-246-128-319-20-23-99-95-177-160-77-66-174-150-215-187-47-44-76-63-79-55-2 7-15 25-28 40-21 24-23 25-24 7 0-11 11-44 25-73 40-86 36-99-62-241-49-72-62-136-39-192 16-39 12-50-23-68-38-21-91-5-104 30-13 34-27 37-34 9-5-19-9-18-73 16-51 27-71 43-79 65-11 31-50 55-75 46-27-10-18-34 15-41 43-8 32-31-15-30-20 1-45 9-56 19-18 16-19 27-14 104 4 47 12 93 20 101 7 8 35 49 61 90 67 102 138 187 255 302 112 112 209 230 242 297 19 37 26 75 35 196 17 219 27 271 66 343 22 40 30 62 22 62-15 0-56-41-80-80-18-28-47-147-47-189 0-25-7-32-52-51-97-42-286-37-384 10-49 24-144 106-144 123 1 7 19 24 40 39 24 17 40 36 40 48 0 26-3 25-51-9-22-17-56-35-75-41-19-6-34-15-34-18 0-20 97-125 144-157 30-20 58-45 61-54 9-30-13-107-56-193l-40-80 31 22c64 46 120 144 120 210v38l128-5c110-5 136-3 197 15 38 12 71 20 72 18 10-10-20-182-42-243-28-76-55-113-55-75 0 11-6 25-14 31-7 6-16 34-18 62-4 33-13 58-28 74-13 14-25 23-27 22-2-2 4-23 12-47 20-58 19-85-7-131-12-21-19-41-16-45 12-11 47 7 53 28 5 13 10 17 17 10 23-23-24-89-156-217-111-109-227-245-263-309-7-13-46-2-238 65-227 79-285 109-285 147 0 7-6 12-12 9-7-2-13-14-12-26 0-11-2-21-5-21-3 0-39 12-79 26-49 18-79 36-92 55l-20 27 42 7c86 13 85 18-5 36-108 22-154 43-239 114-53 43-73 68-99 121-31 66-32 72-44 288-7 122-17 234-24 249-6 16-23 54-37 85-40 87-54 131-54 171 0 39 33 121 48 121 5 0 16-15 23-32 18-44 95-125 140-149 50-25 69-46 69-75 0-27 15-32 24-8 14 36 3 55-65 116-80 71-177 199-214 282-25 58-26 58-110 71-73 12-205 106-205 147 0 10 9 37 21 60 35 69 49 119 58 208 5 47 17 108 26 135 38 112 170 267 268 314 76 37 199 49 298 31m-27-2260c38-17 67-37 71-49 4-12-5-36-25-67-36-58-40-112-9-140 16-15 22-16 29-5 8 14 45 8 38-7-2-4-16-33-31-64l-27-58-52-2c-107-3-118 5-129 88-4 31-15 64-23 73-15 14-16 11-16-35v-50l-77 12c-43 7-78 13-78 13-1 1-20 19-45 41-41 37-44 43-56 122-15 103-6 127 73 196 30 26 73 63 95 83l41 35 78-79c58-57 97-86 143-107m1946 134c50-45 52-74 8-156-33-62-88-115-188-181-48-33-55-35-64-20-6 11-3 40 9 85 13 51 15 72 7 80-16 16-50-62-58-133-5-47-11-58-38-77-34-23-117-52-152-52-16 0-23 8-28 31-5 28 0 36 77 108 45 43 143 131 217 195 74 64 141 125 149 136 7 11 15 20 17 20 2 0 22-16 44-36m111-51c101-109 195-302 225-460 21-110 14-261-14-349-11-33-56-132-100-220-43-87-96-202-116-254-40-102-164-349-196-390-18-24-19-24-25-5-30 94-113 209-195 269-89 66-150 85-312 98-159 13-214 4-222-35-3-12-9-40-14-62l-9-40-10 35c-8 29-2 56 37 179l47 145-46 71c-25 39-47 68-49 64-2-4 6-41 16-83l20-75-23-63c-49-133-68-164-143-233-41-36-76-64-79-61-3 3 1 12 10 20 43 43 26 175-34 266-79 117-274 237-403 247-39 4-66 10-66 17 1 12 200 217 270 278 36 32 42 42 38 68-5 36-5 36 65 9l54-21-8-46c-8-42-7-48 18-75 41-42 80-60 123-54 27 3 39 0 47-12 6-9 40-26 77-38 36-12 95-32 131-44 78-25 104-21 139 26 15 19 34 35 43 35 8 0 78-22 154-50 153-54 172-55 206-4 21 32 22 100 2 119-8 7-86 39-174 70-88 32-170 61-183 66-22 8-22 9 20 69 28 38 52 61 68 65 170 36 242 66 366 156 90 64 149 131 190 211 28 55 29 73 10 111-14 25-13 26 2 18 9-5 29-22 43-38m-2534 10c29-9 53-21 53-27-1-6-13-26-29-44l-28-33-49 18c-54 21-64 41-40 78 19 30 24 30 93 8m931-327c183-64 337-116 342-116 18 0 21-20 6-42-9-12-16-33-16-45 0-13-1-23-3-23-2 0-165 58-362 129-244 87-361 134-363 144-5 27 28 79 46 74 9-3 167-57 350-121m-2029-36c101-29 151-149 151-364 0-192-41-370-136-594-79-187-162-309-291-433-119-114-200-143-283-101-88 44-130 158-130 356 0 117 17 266 29 266 4 0 45-11 91-25 46-14 91-25 101-25 28 0 72 44 104 102 24 43 29 65 29 118 0 96-7 104-119 131-52 13-95 27-95 32 0 17 77 164 125 239 26 40 91 116 144 169 75 75 109 101 151 117 63 24 82 26 129 12m1956-88c55-19 101-36 103-37 2-2-54-141-124-311-70-170-166-405-214-523l-88-215-23 49c-30 65-88 121-139 136-30 9-40 17-37 28 3 9 88 212 189 451 101 239 187 443 191 454 5 12 13 16 25 11 9-4 62-23 117-43m-1675-31c89-47 125-164 117-381-9-205-58-391-161-606-148-308-362-511-507-479-29 7-99 59-99 74 0 4 11 13 24 19 38 17 150 127 209 205 214 282 351 726 317 1026-5 50-15 102-20 116-6 15-10 31-10 36 0 16 94 10 130-10m1888-47c14-9 22-24 22-42 0-34-7-43-52-71-20-12-53-43-72-69-19-26-44-56-57-67-22-20-22-20-16 0 3 11 29 77 59 147 57 137 58 138 116 102m-1642-63c86-52 119-148 118-341 0-159-18-261-75-435-136-409-403-725-584-691-36 7-115 68-115 90 0 6 21 24 48 41 114 72 258 255 348 441 56 118 117 300 143 431 31 149 28 356-5 466-5 14 2 17 43 17 30 0 60-7 79-19m2515-89l136-47-19-30c-10-16-17-40-15-52 2-13 2-23 0-23-3 0-63 21-134 46-113 41-129 50-129 69 0 33 12 85 19 85 3 0 67-21 142-48m-2220 15c85-57 115-165 106-386-4-111-12-169-31-241-76-290-190-514-343-680-80-87-168-146-228-155-48-8-116 17-148 52-18 20-16 23 86 124 156 156 252 320 336 574 56 168 71 250 77 405 6 129-2 194-31 287-9 29 19 41 91 42 37 1 60-5 85-22m277-95c71-51 109-198 99-387-18-332-184-722-399-938-81-81-175-137-231-137-40 0-88 23-122 59-27 30-29 33-12 42 9 6 44 32 76 59 219 182 417 602 450 953 11 114 2 263-20 326-15 44-2 53 72 48 37-2 66-10 87-25m2170-30c2-18-2-40-9-48-18-22-57-17-75 11-15 23-15 27 0 51 14 20 24 25 49 22 28-3 32-7 35-36m-4189-60c32-60 15-172-35-232-73-86-144 53-86 167 36 69 100 104 121 65m400-97c74-19 138-40 143-47 4-7 8-39 8-71 0-65-21-116-68-160l-29-28-119 34c-66 19-178 49-251 67-128 31-131 32-112 51 55 55 81 161 55 223-9 21-16 40-16 41 0 1 57-15 128-37 70-21 187-54 261-73m2596-60c85-23 150-61 226-135 50-49 72-78 87-120 42-117 45-108-63-195l-96-78-57 12c-104 23-436 102-439 105-9 9 128 311 165 363 40 58 46 63 81 63 20 0 63-7 96-15m-583-410c40-27 91-106 108-167 11-38 32-49 47-26 4 7 20 42 35 78 15 37 32 64 40 64 20-2 862-197 867-201 3-2-4-18-14-36-14-23-20-57-23-124-3-51-8-93-12-93-4 0-308 67-676 149-368 82-683 152-700 156l-31 6 22 62c12 34 31 94 40 133l18 70 121-23c83-16 131-31 158-48m1558 26c32-10 79-30 104-45 55-32 163-148 186-200l18-39-63-86c-34-47-84-123-110-169-47-80-48-86-47-155 3-93 14-132 72-248 41-83 49-110 61-200 7-57 13-192 13-299 1-206-6-261-60-450-34-122-44-178-54-328-13-179-2-231 86-401 55-105 67-138 67-174-2-108-77-143-383-182-168-21-268-42-369-76-144-49-264-51-318-5-17 14-47 25-75 28-57 7-164 56-200 93-37 37-35 64 6 104 29 28 48 35 127 51 137 27 194 52 317 139 60 42 141 94 179 114l69 36 38 98c70 182 78 224 80 378 0 115-4 163-26 270-79 382-96 517-101 798l-3 198 46-46c45-44 64-53 74-37 7 11-43 80-112 157-30 32-61 74-68 92-24 56-18 159 15 255 16 47 44 143 62 213 26 101 37 129 53 136 33 15 248 1 316-20m-425-108c14-8 15-16 4-59-6-27-15-53-19-57-4-4-77 8-163 28-85 19-159 35-164 35-4 1 9 16 30 34l39 32 46-23c26-13 56-22 67-21 11 2 40 29 65 60l45 57 17-38c9-22 24-43 33-48m-638-348l262-59 11-60c23-127 24-273 1-380-22-106-40-142-95-195-38-37-44-51-23-51 9 0 12-32 12-132 0-148 35-445 67-568 10-40 33-105 50-144 27-62 29-73 19-107-6-21-25-49-42-63-41-34-103-34-246 0-140 34-252 30-428-16-233-61-237-62-304-56-79 8-133 35-165 83-22 32-24 40-13 57 8 11 42 30 78 43 37 14 81 40 104 62 59 56 110 87 330 200 69 36 151 120 181 186 24 52 26 65 26 213 0 129-6 188-31 332-29 171-73 487-89 643-8 76-8 79 12 74 12-2 139-30 283-62m2359-226c1157-271 1109-263 1288-215 131 34 236 42 299 23 26-9 78-35 114-58l65-43-35-18c-77-39-134-148-145-280l-7-73-84 2c-93 3-155 25-245 90-27 20-68 44-91 54-38 17-2269 519-2306 519-10 0-20 4-23 8-12 20 106 232 128 232 8 0 476-108 1042-241m-1786 81c0-8 10-31 22-50 19-32 22-55 29-270 11-353 17-404 69-675 67-342 76-416 61-513-14-92-35-169-63-235l-21-48-26 18c-14 9-86 56-160 103l-135 86-1 75c-1 63-6 85-38 153-43 92-61 176-82 376-16 159-19 301-6 367 5 24 21 57 39 77 37 42 48 80 63 204 11 88 1 299-17 383l-6 26 136-30c103-24 136-35 136-47m1765-375c879-194 1123-252 1173-275l63-31-7-322c-3-177-9-385-13-463l-6-141-199 94c-110 51-206 93-214 93-20 0-245-69-255-79-4-4-6-68-5-141l3-133 137-76c76-42 138-79 138-82 0-4-15-9-32-13-18-3-384-92-813-197l-780-192-74 40-74 40-1 64c-1 57-9 78-68 199-37 74-72 160-79 191-16 79 3 287 40 437 74 293 84 398 70 687-10 202-17 234-83 375-30 63-58 130-61 148-6 30-5 33 11 28 11-3 519-116 1129-251m1830-51c-49-25-84-65-118-133-28-58-31-74-32-155 0-77 4-99 26-146 64-138 196-187 304-114 20 13 37 24 38 24 1 0-1-105-4-232-4-128-8-376-10-550l-4-317 280-137c154-75 283-140 288-144 4-3-48-23-115-43l-123-36-375 190c-206 105-379 194-383 199-10 9 29 1206 43 1338 13 115 39 179 96 232 35 32 51 40 81 40h38l-30-16m165-22c44-22 96-90 111-145 6-23 9-78 7-123-4-67-9-90-35-135-70-125-191-160-282-83-136 114-104 406 52 483 51 26 101 27 147 3m-657-292c57-32 177-56 235-46l35 5-6-112c-4-62-14-343-24-625l-17-514 22-16c12-10 189-100 392-202l371-185-3-142c-2-79-6-143-10-143-4 0-206 111-449 246l-442 245-976-277c-537-152-983-279-993-281-25-7-32 29-30 167 2 69-1 130-5 136-5 6-50 34-101 64-51 29-89 56-85 60 4 4 116 33 248 64 420 101 1709 418 1731 426 20 8 21 15 27 407 8 422 18 753 24 753 2 0 27-13 56-30m-326-817l212-98 1-88c0-49-4-87-8-85-4 2-128 65-275 141-148 75-285 144-305 153-25 11-32 18-22 22 27 10 165 51 175 51 6 1 105-43 222-96m-4309-4c-1-69 57-125 161-156 84-25 176-19 366 22 224 49 373 57 466 26 97-32 161-42 202-30 32 9 79 51 89 79 5 17 323-188 323-208 0-14-12-17-70-20-120-4-1148-61-1189-66-38-4-44-1-208 142-93 81-193 167-223 192-30 25-54 48-54 53-1 4 30 7 68 7h70l-1-41m27-154c99-88 200-176 223-196l42-36v-91c0-51-2-92-5-92-3 0-76 60-163 133-86 73-190 159-229 192l-73 59v104c0 80 3 101 13 95 6-4 93-79 192-168m4155 21c168-85 298-157 290-160-8-2-76-19-150-37l-136-32-157 88-157 87v104c0 57 1 104 3 104 1 0 139-69 307-154m-4134-281l24-20-210-380c-264-477-318-582-305-593 14-13 205 57 205 74 0 20-17 17-90-11-35-14-65-23-67-21-5 5 55 126 62 126 2 0 229 52 504 115 275 63 506 115 514 115 7 0 23-10 34-22l20-23-44-120-45-120-646-183c-356-101-651-183-656-183-13 1-191 164-191 176 0 7 618 1058 702 1193l14 23 75-63c42-35 87-72 100-83m1488 87c-6-4-67-44-136-90l-124-82-454-45c-250-25-465-45-477-45-22 0-23 3-23 100v99l33 5c17 3 253 17 522 31 270 15 528 30 575 34 86 7 103 5 84-7m-1244-289c13-9 47-9 155 3 422 45 710 74 724 73 9 0-1-7-21-14-21-8-153-26-295-40-141-15-261-29-265-31-4-3-8-68-8-144v-140l37-33 37-34-40-7c-21-4-226-50-454-103-503-116-463-108-459-97 4 9 306 556 371 672l30 52 86-73c48-40 94-78 102-84m611-38c-47-54-40-123 19-173 28-25 199-102 225-102 14 0 48-12 76-26 48-25 56-26 162-22 84 4 123 10 157 26 65 29 180 57 385 91 247 42 356 79 384 128 9 18 10 17 240-116l115-66-40-7c-21-4-363-38-759-75l-720-69-220 181c-121 100-235 192-252 205-18 13-33 27-33 31 0 3 44 10 98 14 53 4 117 10 142 14 25 4 47 6 49 4 2-1-10-18-28-38m-28-228l227-188v-119-119l-187 156c-104 86-214 179-245 207l-58 50v114c0 107 1 112 18 100 10-7 120-98 245-201m5057-56v-139l-112-40c-62-22-122-42-134-46-20-6-21-4-17 126 2 73 5 139 6 147 2 10 203 83 250 90 4 0 7-62 7-138m-3230-110v-99l-37-6c-104-16-331-41-868-96-324-33-607-63-627-66l-38-6v111c0 61 3 111 8 112 4 0 342 33 752 73 410 41 760 74 778 75l32 1v-99m-1783-148l99-83-108-327c-220-669-321-984-315-989 6-7 217 55 231 68 6 5 6 12 0 18-7 7-39 0-99-20-49-16-90-28-92-27-6 7 40 129 51 132 6 2 403 112 881 245 479 134 881 247 894 251 19 8 38 2 96-30 40-22 75-37 79-34 16 16 1 32-63 63l-69 33-13 86c-6 47-28 198-49 336-20 137-36 251-35 253 2 3 299 41 301 39 5-5 38-185 95-518l62-367-28-45-29-45-1210-370-1211-370-102 102-102 101 260 725c143 399 274 764 291 813l30 87 27-22c16-13 73-60 128-105m1458-55c14-82 94-642 92-643-1-1-315-88-697-195-382-106-780-217-884-247-104-29-191-51-193-49-3 2 70 233 162 513 91 279 171 523 176 541l11 32 34-28c25-21 42-28 61-24 14 3 294 33 622 67 328 34 599 63 603 64 4 0 10-14 13-31"/><path d="m3209 8337c-36-19-50-36-79-93l-35-69-65-3c-37-1-106 6-160 17-91 19-110 19-110 2 0-19 207-70 285-71 67 0 90 18 110 86 12 40 28 68 61 101 25 25 44 47 41 49-2 2-24-6-48-19"/><path d="m3246 8201c-14-32-26-63-26-68 0-5-18-35-40-67-47-66-62-122-49-172 13-45 29-43 29 4 0 57 19 114 51 150 27 31 50 93 65 175 3 20 4 37 1 37-2 0-16-26-31-59"/><path d="m4410 7937c0-18 64-119 82-128 13-7 41-7 91 1 71 11 116 5 192-25 16-6 14-2-9 23-28 30-30 30-142 34l-113 3-51 50c-27 27-50 46-50 42"/><path d="m4093 7810c-58-24-103-61-103-85 0-36 24-31 48 9 14 24 33 38 63 48 24 8 43 19 42 24-3 13-24 15-50 4"/><path d="m2836 7789c4-13 8-40 9-60 3-45 11-59 33-59 9 0 34-5 55-11 29-8 37-15 37-32 0-31 27-67 51-67 25 0 24 16-2 31-20 10-21 21-4 61 8 20-30 42-91 52-38 7-42 10-55 53-8 26-21 49-28 51-10 3-11-2-5-19"/><path d="m3343 7791c-13-11-54-24-92-31-82-14-116-41-126-100-12-70 17-84 34-16 6 24 16 48 23 53 7 6 49 21 93 32 88 24 105 35 105 62 0 24-9 23-37 0"/><path d="m3560 7713c0-24 103-123 128-123 31 0 27 17-6 34-16 8-45 35-66 60-39 48-56 57-56 29"/><path d="m4972 7713c27-58 54-103 60-103 19 0 7 62-17 85-22 23-51 35-43 18"/><path d="m4260 7704c-112-13-187-40-167-60 3-4 44 3 89 15 97 24 167 26 223 5 57-21 58-21 63-2 2 12-5 21-22 28-31 11-137 19-186 14"/><path d="m4855 7321c0-50-8-73-64-189-36-72-62-134-59-138 16-16 126 187 149 277 13 49 7 94-14 102-9 3-13-10-12-52"/><path d="m4100 7163c0-6 7-24 15-39 8-16 15-37 15-47 0-25-34-88-59-111-28-26-26-38 5-34 16 2 32 14 42 33 9 17 18 32 20 35 2 2 7-2 12-10 15-23 12-84-5-106-19-25-19-44-1-44 42 0 60 95 29 153-9 18-17 53-18 79 0 38-5 53-27 75-16 15-28 23-28 16"/><path d="m3234 7088c7-126 102-272 191-297 57-15 152-14 231 5 64 14 150 51 142 59-2 3-42-2-87-11-52-10-120-15-182-12-89 3-101 5-141 33-47 33-94 112-135 225l-23 65 4-67"/><path d="m4602 6858c-101-93-136-134-128-154 5-12 31 10 104 87 53 56 103 110 110 120 27 39-8 16-86-53"/><path d="m3660 6748c-19-5-65-8-102-5-71 6-83-1-46-27 27-19 96-20 163-3 65 18 104 7 156-43 23-22 44-40 46-40 1 0 3 10 3 23 0 69-127 124-220 95"/><path d="m4024 6375c-15-23-15-27 0-50 10-16 26-25 41-25 30 0 32 11 5 28-22 14-26 42-8 60 9 9 8 12-5 12-9 0-24-11-33-25"/><path d="m2690 6772c0-18 101-82 128-82 16 0 42-10 57-22l28-22-7 43c-4 28-2 48 5 57 18 22-6 16-26-6-25-27-49-25-112 10-53 30-73 36-73 22"/><path d="m5091 6677c-38-46-97-109-132-140-74-68-247-159-332-177-50-10-56-14-46-27 10-12 25-13 68-8 123 15 241 79 365 195l69 65-6-41c-6-34-1-52 27-110 65-132 72-226 23-325-14-30-65-101-113-159-48-58-98-129-111-157-26-57-28-118-4-118 8 0 42 51 77 114 34 62 85 141 113 175 29 33 66 90 84 126 29 59 32 73 32 155-1 86-3 96-43 180l-43 89 11 71c7 40 22 86 36 107 13 21 24 44 24 53 0 33-32 11-99-68"/><path d="m1440 6466c0-3 7-35 16-73 23-92 23-282 1-394-20-101-66-243-115-354-87-198-183-331-288-398-35-22-64-44-64-49 0-12 30 2 88 40 83 54 167 162 239 307 138 276 200 548 174 758-14 110-28 167-41 167-6 0-10-2-10-4"/><path d="m3460 5665c-8-16-11-41-7-75 9-72 26-104 60-108 37-4 35 16-4 51-31 27-32 29-26 92 7 68-1 81-23 40"/><path d="m4374 5467c-8-23 28-165 59-227 15-30 29-46 45-48 30-4 28 6-12 72-19 31-42 87-52 124-23 88-30 103-40 79"/><path d="m4486 5015c-4-11-13-33-19-50-6-16-31-54-55-83-24-30-42-56-39-58 2-3 21 5 41 17 20 12 40 19 43 15 4-3 8-31 11-61 3-40 0-62-12-80-14-21-14-25-2-25 31 0 46 30 45 88-1 31-4 71-8 87-4 17-3 49 2 72 5 23 7 55 5 70-4 25-5 26-12 8"/><path d="m4506 4291c-10-16 3-219 20-309 16-88 54-176 82-191 33-18 34 2 4 71-46 101-59 155-72 288-12 127-21 163-34 141"/><path d="m4535 3119c-3-9 5-44 19-78 14-33 26-73 26-89 0-35-30-76-73-99-25-13-28-18-14-21 57-12 117 42 117 106 0 38-35 151-54 177-13 18-15 18-21 4"/><path d="m3451 4843c-11-23-29-110-37-190-10-93 23-212 62-227 33-13 34 11 4 65-24 44-30 66-30 119 0 36 7 92 15 125 17 70 19 125 5 125-5 0-13-8-19-17"/><path d="m3591 3708c-1-20 6-64 15-98 16-62 12-108-9-122-7-4-29-8-51-8-33 0-37-2-26-15 7-9 29-15 50-15 30 0 43 6 59 26 28 36 26 81-8 184-25 74-29 80-30 48"/></g></svg>